<svg width="100" height="38" viewBox="0 0 100 38" fill="none" xmlns="http://www.w3.org/2000/svg">
<path d="M5.01562 20.1406L14.5469 23.3594V28.1562L0.71875 22.5312V18.9688L5.01562 20.1406ZM14.5469 17.5312L5 20.8125L0.71875 21.9375V18.375L14.5469 12.75V17.5312ZM18.0781 7.25H27.0312C28.7812 7.25 30.3021 7.51042 31.5938 8.03125C32.8854 8.55208 33.8802 9.32292 34.5781 10.3438C35.2865 11.3646 35.6406 12.625 35.6406 14.125C35.6406 15.4271 35.4375 16.5156 35.0312 17.3906C34.625 18.2656 34.0573 18.9896 33.3281 19.5625C32.6094 20.125 31.7708 20.5885 30.8125 20.9531L29.0156 21.9688H21.5L21.4688 17.7344H27.0312C27.7292 17.7344 28.3073 17.6094 28.7656 17.3594C29.224 17.1094 29.5677 16.7552 29.7969 16.2969C30.0365 15.8281 30.1562 15.2708 30.1562 14.625C30.1562 13.9688 30.0365 13.4062 29.7969 12.9375C29.5573 12.4688 29.2031 12.1094 28.7344 11.8594C28.276 11.6094 27.7083 11.4844 27.0312 11.4844H23.5625V30H18.0781V7.25ZM30.5312 30L25.5 19.9375L31.3125 19.9062L36.4062 29.7656V30H30.5312ZM47.4844 25.75V18.7812C47.4844 18.3021 47.4167 17.8906 47.2812 17.5469C47.1458 17.2031 46.9323 16.9375 46.6406 16.75C46.349 16.5521 45.9583 16.4531 45.4688 16.4531C45.0729 16.4531 44.7344 16.5208 44.4531 16.6562C44.1719 16.7917 43.9583 16.9948 43.8125 17.2656C43.6667 17.5365 43.5938 17.8802 43.5938 18.2969H38.3281C38.3281 17.5156 38.5 16.7917 38.8438 16.125C39.1979 15.4479 39.6979 14.8594 40.3438 14.3594C41 13.8594 41.7812 13.474 42.6875 13.2031C43.6042 12.9219 44.625 12.7812 45.75 12.7812C47.0938 12.7812 48.2917 13.0052 49.3438 13.4531C50.4062 13.901 51.2448 14.5729 51.8594 15.4688C52.474 16.3542 52.7812 17.4688 52.7812 18.8125V25.7344C52.7812 26.8385 52.8438 27.6771 52.9688 28.25C53.0938 28.8125 53.2708 29.3073 53.5 29.7344V30H48.2188C47.9688 29.4792 47.7812 28.8438 47.6562 28.0938C47.5417 27.3333 47.4844 26.5521 47.4844 25.75ZM48.125 19.6719L48.1562 22.4844H45.8281C45.3385 22.4844 44.9219 22.5521 44.5781 22.6875C44.2448 22.8229 43.974 23.0104 43.7656 23.25C43.5677 23.4792 43.4219 23.7396 43.3281 24.0312C43.2448 24.3229 43.2031 24.6302 43.2031 24.9531C43.2031 25.2656 43.276 25.5469 43.4219 25.7969C43.5781 26.0365 43.7865 26.224 44.0469 26.3594C44.3073 26.4948 44.599 26.5625 44.9219 26.5625C45.5052 26.5625 46 26.4531 46.4062 26.2344C46.8229 26.0052 47.1406 25.7292 47.3594 25.4062C47.5781 25.0833 47.6875 24.7812 47.6875 24.5L48.8438 26.6562C48.6354 27.0729 48.3958 27.4948 48.125 27.9219C47.8646 28.349 47.5365 28.7448 47.1406 29.1094C46.7552 29.4635 46.2812 29.7552 45.7188 29.9844C45.1562 30.2031 44.474 30.3125 43.6719 30.3125C42.6302 30.3125 41.6719 30.099 40.7969 29.6719C39.9323 29.2448 39.2396 28.651 38.7188 27.8906C38.1979 27.1198 37.9375 26.2344 37.9375 25.2344C37.9375 24.3594 38.0938 23.5781 38.4062 22.8906C38.7292 22.2031 39.2135 21.6198 39.8594 21.1406C40.5052 20.6615 41.3281 20.2969 42.3281 20.0469C43.3281 19.7969 44.5052 19.6719 45.8594 19.6719H48.125ZM61.0156 5.98438V30H55.75V5.98438H61.0156ZM71.8281 13.0938L64.4844 21.7031L60.6406 25.5469L58.3438 22.2031L61.5469 18.0312L65.5156 13.0938H71.8281ZM66.1875 30L61.6719 22.2969L65.5625 19.5312L72.2188 30H66.1875ZM82.7969 7.25L75.0156 31.9531H71.2656L79.0469 7.25H82.7969ZM94.2031 20.7656L84.7031 17.5469V12.7656L98.4531 18.3906V21.9688L94.2031 20.7656ZM84.7031 23.3906L94.2031 20.0938L98.4531 18.9844V22.5469L84.7031 28.1719V23.3906Z" fill="#2B2D42"/>
</svg>
